<svg xmlns="http://www.w3.org/2000/svg" viewBox="0 0 1280 720">
  <defs>
    <filter id="cardShadow" x="-10%" y="-10%" width="120%" height="120%">
      <feGaussianBlur in="SourceAlpha" stdDeviation="3"/>
      <feOffset dx="0" dy="2"/>
      <feComponentTransfer><feFuncA type="linear" slope="0.1"/></feComponentTransfer>
      <feMerge><feMergeNode/><feMergeNode in="SourceGraphic"/></feMerge>
    </filter>
  </defs>
  <rect x="0" y="0" width="1280" height="720" fill="#F8FAFC"/>
  <rect x="0" y="0" width="1280" height="4" fill="#1E3A5F"/>
  <rect x="0" y="4" width="1280" height="56" fill="#FFFFFF"/>
  <text x="60" y="38" font-family="PingFang SC, Microsoft YaHei, SimHei, sans-serif" font-size="14" fill="#1E3A5F" font-weight="600">沙坪坝区道路精细化提质</text>
  <rect x="260" y="22" width="1" height="20" fill="#E2E8F0"/>
  <text x="280" y="38" font-family="PingFang SC, Microsoft YaHei, sans-serif" font-size="14" fill="#F59E0B">06 一路一策</text>
  <text x="1220" y="38" font-family="PingFang SC, Microsoft YaHei, sans-serif" font-size="14" fill="#64748B" text-anchor="end">19 / 20</text>
  <rect x="0" y="60" width="1280" height="1" fill="#E2E8F0"/>
  <text x="60" y="105" font-family="PingFang SC, Microsoft YaHei, SimHei, sans-serif" font-size="28" font-weight="700" fill="#1E3A5F">6.1-6.5 三线策略与风貌定位</text>

  <g filter="url(#cardShadow)"><rect x="60" y="140" width="370" height="340" rx="8" fill="#FFFFFF"/><rect x="60" y="140" width="370" height="6" rx="3" fill="#E63946"/>
    <text x="245" y="180" font-family="PingFang SC, Microsoft YaHei, SimHei, sans-serif" font-size="18" font-weight="700" fill="#E63946" text-anchor="middle">路线一 · 繁华走廊</text>
    <text x="245" y="210" font-family="PingFang SC, Microsoft YaHei, sans-serif" font-size="14" fill="#334155" text-anchor="middle">商衢焕彩 · 时尚三峡</text>
    <rect x="85" y="225" width="320" height="1" fill="#E2E8F0"/>
    <text x="245" y="260" font-family="PingFang SC, Microsoft YaHei, sans-serif" font-size="36" font-weight="700" fill="#E63946" text-anchor="middle">S = 53.1</text>
    <text x="245" y="285" font-family="PingFang SC, Microsoft YaHei, sans-serif" font-size="13" fill="#64748B" text-anchor="middle">1,244项 · 6条路 · 约6.7km</text>
    <rect x="100" y="305" width="290" height="24" rx="4" fill="#FEE2E2"/><text x="245" y="322" font-family="PingFang SC, Microsoft YaHei, sans-serif" font-size="12" fill="#E63946" text-anchor="middle">4I + 2II + 2III · 全线管理攻坚</text>
    <text x="85" y="355" font-family="PingFang SC, Microsoft YaHei, sans-serif" font-size="12" fill="#334155"><tspan x="85" dy="0">①停车166项②占道80项③人行道73项</tspan><tspan x="85" dy="18">④围挡39项⑤立面76项⑥招牌35项</tspan><tspan x="85" dy="18">⑦绿化17项⑧飞线 ⑨市容</tspan></text>
    <rect x="85" y="445" width="140" height="24" rx="4" fill="#FEE2E2"/><text x="155" y="462" font-family="PingFang SC, Microsoft YaHei, sans-serif" font-size="12" fill="#E63946" text-anchor="middle">目标 S ≥ 70</text>
  </g>

  <g filter="url(#cardShadow)"><rect x="455" y="140" width="370" height="340" rx="8" fill="#FFFFFF"/><rect x="455" y="140" width="370" height="6" rx="3" fill="#2D6A4F"/>
    <text x="640" y="180" font-family="PingFang SC, Microsoft YaHei, SimHei, sans-serif" font-size="18" font-weight="700" fill="#2D6A4F" text-anchor="middle">路线二 · 江岸画廊</text>
    <text x="640" y="210" font-family="PingFang SC, Microsoft YaHei, sans-serif" font-size="14" fill="#334155" text-anchor="middle">江风绿韵 · 流光沙滨</text>
    <rect x="480" y="225" width="320" height="1" fill="#E2E8F0"/>
    <text x="640" y="260" font-family="PingFang SC, Microsoft YaHei, sans-serif" font-size="36" font-weight="700" fill="#2D6A4F" text-anchor="middle">S = 69.7</text>
    <text x="640" y="285" font-family="PingFang SC, Microsoft YaHei, sans-serif" font-size="13" fill="#64748B" text-anchor="middle">32项 · 1条路 · 约14.5km</text>
    <rect x="495" y="305" width="290" height="24" rx="4" fill="#ECF8F0"/><text x="640" y="322" font-family="PingFang SC, Microsoft YaHei, sans-serif" font-size="12" fill="#2D6A4F" text-anchor="middle">1I + 2II + 1III + 1IV · 精细管护</text>
    <text x="480" y="355" font-family="PingFang SC, Microsoft YaHei, sans-serif" font-size="12" fill="#334155"><tspan x="480" dy="0">①停车21项②人行道11项③立面11项</tspan><tspan x="480" dy="18">④护栏7项⑤绿化4项</tspan><tspan x="480" dy="18">三道贯通2.8km·夜景暖色灯带</tspan></text>
    <rect x="480" y="445" width="140" height="24" rx="4" fill="#ECF8F0"/><text x="550" y="462" font-family="PingFang SC, Microsoft YaHei, sans-serif" font-size="12" fill="#2D6A4F" text-anchor="middle">目标 S ≥ 80</text>
  </g>

  <g filter="url(#cardShadow)"><rect x="850" y="140" width="370" height="340" rx="8" fill="#FFFFFF"/><rect x="850" y="140" width="370" height="6" rx="3" fill="#F59E0B"/>
    <text x="1035" y="180" font-family="PingFang SC, Microsoft YaHei, SimHei, sans-serif" font-size="18" font-weight="700" fill="#F59E0B" text-anchor="middle">路线三 · 舒行走廊</text>
    <text x="1035" y="210" font-family="PingFang SC, Microsoft YaHei, sans-serif" font-size="14" fill="#334155" text-anchor="middle">舒行绿廊 · 烟火人家</text>
    <rect x="875" y="225" width="320" height="1" fill="#E2E8F0"/>
    <text x="1035" y="260" font-family="PingFang SC, Microsoft YaHei, sans-serif" font-size="36" font-weight="700" fill="#F59E0B" text-anchor="middle">S = 65.0</text>
    <text x="1035" y="285" font-family="PingFang SC, Microsoft YaHei, sans-serif" font-size="13" fill="#64748B" text-anchor="middle">334项 · 2条路 · 约4.8km</text>
    <rect x="890" y="305" width="290" height="24" rx="4" fill="#FEF3E2"/><text x="1035" y="322" font-family="PingFang SC, Microsoft YaHei, sans-serif" font-size="12" fill="#F59E0B" text-anchor="middle">3II + 2III + 2IV · 精准施治</text>
    <text x="875" y="355" font-family="PingFang SC, Microsoft YaHei, sans-serif" font-size="12" fill="#334155"><tspan x="875" dy="0">①停车52项②占道40项③人行道24项</tspan><tspan x="875" dy="18">④立面22项⑤招牌14项⑥绿化</tspan><tspan x="875" dy="18">口袋公园2处 · 智慧设施增设</tspan></text>
    <rect x="890" y="445" width="140" height="24" rx="4" fill="#FEF3E2"/><text x="960" y="462" font-family="PingFang SC, Microsoft YaHei, sans-serif" font-size="12" fill="#F59E0B" text-anchor="middle">目标 S ≥ 75</text>
  </g>

  <rect x="60" y="510" width="1160" height="50" rx="6" fill="#1E3A5F"/>
  <text x="640" y="540" font-family="PingFang SC, Microsoft YaHei, SimHei, sans-serif" font-size="16" font-weight="700" fill="#FFFFFF" text-anchor="middle">总体策略：一票否决优先 → 功能修复跟进 → 品质提升并行 → 精细管护长效</text>

  <rect x="60" y="580" width="370" height="40" rx="6" fill="#FEE2E2"/><text x="245" y="605" font-family="PingFang SC, Microsoft YaHei, SimHei, sans-serif" font-size="14" fill="#E63946" text-anchor="middle">路线一 · 全线重点攻坚 · 高投入60-70%</text>
  <rect x="455" y="580" width="370" height="40" rx="6" fill="#ECF8F0"/><text x="640" y="605" font-family="PingFang SC, Microsoft YaHei, SimHei, sans-serif" font-size="14" fill="#2D6A4F" text-anchor="middle">路线二 · 轻量化快速见效 · 低投入5-10%</text>
  <rect x="850" y="580" width="370" height="40" rx="6" fill="#FEF3E2"/><text x="1035" y="605" font-family="PingFang SC, Microsoft YaHei, SimHei, sans-serif" font-size="14" fill="#F59E0B" text-anchor="middle">路线三 · 分步有序推进 · 中投入20-30%</text>
  <text x="60" y="700" font-family="PingFang SC, Microsoft YaHei, SimHei, sans-serif" font-size="11" fill="#94A3B8">数据来源：第六章一路一策  |  注：路线一问题数含三峡广场周边关联路段</text>
</svg>
